<?xml version="1.0" encoding="iso-8859-1"?>
<!-- Uploaded to: SVG Repo, www.svgrepo.com, Generator: SVG Repo Mixer Tools -->
<svg height="800px" width="800px" version="1.1" id="Layer_1" xmlns="http://www.w3.org/2000/svg" xmlns:xlink="http://www.w3.org/1999/xlink" 
	 viewBox="0 0 512 512" xml:space="preserve">
<path style="fill:#995C0D;" d="M130.464,473.013h-20.651c-14.029,0-26.726-5.689-35.931-14.882
	C64.689,448.926,59,436.217,59,422.188c0-28.058,22.756-50.813,50.813-50.813h304.902h38.104v101.638H203.282"/>
<path style="fill:#B27214;" d="M59.001,422.193V59.433l0,0c0-28.064,22.751-50.815,50.815-50.815h343.006v362.76"/>
<g>
	<path style="fill:#CCCCCC;" d="M414.715,371.374v66.549H87.856c-6.587-20.176,0-66.549,0-66.549H414.715z"/>
	<path style="fill:#CCCCCC;" d="M412.896,289.918V88.054c-21.935,0-39.718-17.782-39.718-39.718H191.276
		c0,21.935-17.782,39.718-39.718,39.718v201.865c21.935,0,39.718,17.782,39.718,39.718h181.902
		C373.178,307.701,390.96,289.918,412.896,289.918z"/>
</g>
<polygon style="fill:#F95428;" points="203.282,503.551 166.873,480.795 130.464,503.551 130.464,404.564 203.282,404.564 "/>
<path d="M452.91,48.494c4.713,0,8.533-3.821,8.533-8.533V8.533c0-4.713-3.821-8.533-8.533-8.533H109.905
	C77.179,0,50.557,26.624,50.557,59.349v362.71c0,0.015-0.001,0.03-0.001,0.044c0,6.277,0.98,12.462,2.909,18.373
	c2.875,8.85,7.879,17.011,14.476,23.608c11.221,11.206,26.122,17.377,41.961,17.377h12.118v22.006c0,3.103,1.683,5.96,4.396,7.464
	c2.711,1.503,6.027,1.417,8.66-0.228l31.886-19.929l31.886,19.929c1.381,0.864,2.95,1.297,4.523,1.297
	c1.422,0,2.848-0.355,4.137-1.069c2.714-1.504,4.396-4.361,4.396-7.464v-22.006h241.003c4.713,0,8.533-3.821,8.533-8.533
	l0.003-404.522c0-4.713-3.821-8.533-8.533-8.533s-8.533,3.821-8.533,8.533v294.352H118.439v-62.242c0-4.713-3.821-8.533-8.533-8.533
	c-4.713,0-8.533,3.821-8.533,8.533v62.865c-13.122,1.898-24.864,8.101-33.749,17.13V59.349c0-20.392,14.511-37.458,33.749-41.416
	v32.106c0,4.713,3.821,8.533,8.533,8.533c4.713,0,8.533-3.821,8.533-8.533V17.067h325.939v22.894
	C444.377,44.674,448.197,48.494,452.91,48.494z M171.484,473.475c-1.384-0.865-2.954-1.297-4.523-1.297
	c-1.569,0-3.139,0.432-4.523,1.297l-23.353,14.595v-75.057h55.751v59.903c0,0.003,0,0.007,0,0.011s0,0.007,0,0.011v15.131
	L171.484,473.475z M444.373,464.394h-232.47v-18.021h202.9c4.713,0,8.533-3.821,8.533-8.533v-58.016h21.036L444.373,464.394
	L444.373,464.394z M109.901,379.823H406.27v16.123H272.775c-4.713,0-8.533,3.821-8.533,8.533s3.821,8.533,8.533,8.533H406.27v16.293
	H211.904v-16.293h8.533c4.713,0,8.533-3.821,8.533-8.533s-3.821-8.533-8.533-8.533H110.073c-4.713,0-8.533,3.821-8.533,8.533
	s3.821,8.533,8.533,8.533h11.947v16.293H98.695c-4.713,0-8.533,3.821-8.533,8.533s3.821,8.533,8.533,8.533h23.324v18.021h-12.118
	c-11.283,0-21.903-4.399-29.897-12.382c-4.697-4.697-8.261-10.51-10.312-16.821c-1.374-4.209-2.071-8.613-2.071-13.088
	C67.622,398.79,86.589,379.823,109.901,379.823z"/>
<path d="M109.905,70.542c-4.713,0-8.533,3.821-8.533,8.533v190.588c0,4.713,3.821,8.533,8.533,8.533
	c4.713,0,8.533-3.821,8.533-8.533V79.076C118.439,74.363,114.618,70.542,109.905,70.542z"/>
<path d="M257.275,338.086h115.991c4.713,0,8.533-3.821,8.533-8.533c0-17.195,13.989-31.184,31.184-31.184
	c4.713,0,8.533-3.821,8.533-8.533V87.97c0-4.713-3.821-8.533-8.533-8.533c-17.195,0-31.184-13.989-31.184-31.184
	c0-4.713-3.821-8.533-8.533-8.533H191.365c-4.713,0-8.533,3.821-8.533,8.533c0,17.195-13.989,31.184-31.184,31.184
	c-4.713,0-8.533,3.821-8.533,8.533v201.865c0,4.713,3.821,8.533,8.533,8.533c17.195,0,31.184,13.989,31.184,31.184
	c0,4.713,3.821,8.533,8.533,8.533h37.466c4.713,0,8.533-3.821,8.533-8.533s-3.821-8.533-8.533-8.533h-29.688
	c-3.544-19.778-19.184-35.418-38.962-38.962V95.747c19.778-3.544,35.418-19.184,38.962-38.962h166.345
	c3.544,19.778,19.184,35.418,38.962,38.962v186.31c-19.778,3.544-35.418,19.184-38.962,38.962H257.275
	c-4.713,0-8.533,3.821-8.533,8.533S252.562,338.086,257.275,338.086z"/>
<path d="M282.315,89.346c-4.713,0-8.533,3.821-8.533,8.533v43.804h-42.667c-4.713,0-8.533,3.821-8.533,8.533
	s3.821,8.533,8.533,8.533h42.667v121.173c0,4.713,3.821,8.533,8.533,8.533s8.533-3.821,8.533-8.533V158.751h42.667
	c4.713,0,8.533-3.821,8.533-8.533c0-4.713-3.821-8.533-8.533-8.533h-42.667V97.88C290.848,93.167,287.028,89.346,282.315,89.346z"/>
</svg>